HIERARCHY
ROOT Hips
{
    OFFSET 0.000000 0.000000 0.000000
    CHANNELS 6 Xposition Yposition Zposition Zrotation Xrotation Yrotation
        JOINT Chest
        {
            OFFSET -0.000000 30.832245 -0.000000
            CHANNELS 3 Zrotation Xrotation Yrotation
            JOINT Neck
            {
                OFFSET -0.000000 22.747684 0.000000
                CHANNELS 3 Zrotation Xrotation Yrotation
                JOINT Head
                {
                    OFFSET -0.000000 10.755556 0.000000
                    CHANNELS 3 Zrotation Xrotation Yrotation
                    End Site
                    {
                        OFFSET -0.000000 16.622223 0.000000
                    }
                }
            }
            JOINT LeftCollar
            {
                OFFSET -0.000000 22.747684 0.000000
                CHANNELS 3 Zrotation Xrotation Yrotation
                JOINT LeftShoulder
                {
                    OFFSET 19.555553 -0.000000 0.000000
                    CHANNELS 3 Zrotation Xrotation Yrotation
                    JOINT LeftElbow
                    {
                        OFFSET 22.529686 0.000000 0.000000
                        CHANNELS 3 Zrotation Xrotation Yrotation
                        JOINT LeftWrist
                        {
                            OFFSET 26.249420 0.000000 0.000000
                            CHANNELS 3 Zrotation Xrotation Yrotation
                            End Site
                            {
                                OFFSET 0.000000 -14.666668 0.000000
                            }
                        }
                    }
                }
            }
            JOINT RightCollar
            {
                OFFSET -0.000000 22.747684 0.000000
                CHANNELS 3 Zrotation Xrotation Yrotation
                JOINT RightShoulder
                {
                    OFFSET -19.555553 0.000000 0.000000
                    CHANNELS 3 Zrotation Xrotation Yrotation
                    JOINT RightElbow
                    {
                        OFFSET -22.529686 0.000000 0.000000
                        CHANNELS 3 Zrotation Xrotation Yrotation
                        JOINT RightWrist
                        {
                            OFFSET -26.249420 0.000000 0.000000
                            CHANNELS 3 Zrotation Xrotation Yrotation
                            End Site
                            {
                                OFFSET -0.000000 -14.666668 0.000000
                            }
                        }
                    }
                }
            }
        }
    JOINT LeftHip
    {
        OFFSET 11.733333 0.000000 0.000000
        CHANNELS 3 Zrotation Xrotation Yrotation
        JOINT LeftKnee
        {
            OFFSET -0.000000 -34.781296 0.000000
            CHANNELS 3 Zrotation Xrotation Yrotation
            JOINT LeftAnkle
            {
                OFFSET -0.000000 -42.425819 0.000000
                CHANNELS 3 Zrotation Xrotation Yrotation
                End Site
                {
                    OFFSET -0.000000 -4.888888 16.622223
                }
            }
        }
    }
    JOINT RightHip
    {
        OFFSET -11.733333 0.000000 0.000000
        CHANNELS 3 Zrotation Xrotation Yrotation
        JOINT RightKnee
        {
            OFFSET -0.000000 -34.781296 0.000000
            CHANNELS 3 Zrotation Xrotation Yrotation
            JOINT RightAnkle
            {
                OFFSET -0.000000 -42.425819 0.000000
                CHANNELS 3 Zrotation Xrotation Yrotation
                End Site
                {
                    OFFSET -0.000000 -4.888888 16.622223
                }
            }
        }
    }
}
MOTION
Frames:    8
Frame Time:    0.010000
50.633842    83.040115    -73.825363    -7.028614    11.442320    -107.613884    -18.982491    5.032090    4.274777    4.184752    -4.345555    20.008188    4.696415    -9.465574    20.236792    0.400701    -0.114307    -9.259326    -8.727145    2.086856    -43.075409    13.749411    -0.382307    -3.251966    82.909843    16.101961    126.498085    -6.994051    -0.465073    7.053893    15.102705    8.760823    46.238194    -7.693484    -0.398875    5.927569    -98.912338    -2.113014    -20.876719    31.978228    -3.393297    -0.494228    -7.068982    31.945517    3.916010    -9.281636    -4.352251    21.368612    7.746785    0.323413    1.036857    3.921499    23.757286    0.438941    -2.003073    -13.045934    -8.397913    
50.271458    83.251587    -73.633827    -7.285272    11.653855    -108.309143    -18.318975    4.207411    3.791904    4.863948    -4.112942    20.315050    3.899088    -8.520544    20.430317    0.523620    -0.073732    -8.782479    -5.546512    2.930740    -43.394985    15.056444    -0.491723    -3.874087    84.209061    15.564525    131.549438    -6.931602    -0.429344    6.732797    12.349038    7.567147    45.493328    -8.017506    -0.489641    7.475554    -97.371460    -0.345451    -21.794094    31.591631    -2.600021    -0.280768    -7.355523    32.579571    4.309027    -9.358514    -5.125947    21.624596    7.627274    1.442303    1.288919    3.704930    22.680386    1.175955    -1.814063    -12.699908    -8.610583    
50.182854    83.436134    -73.390175    -6.779181    11.592115    -109.444664    -17.712784    3.120045    3.266888    4.563609    -4.124283    20.634291    4.116508    -8.235226    20.765387    1.651861    -0.180419    -8.954244    -5.159670    1.429530    -43.001793    15.992605    -0.586589    -4.291245    87.930733    14.678000    133.523895    -7.574863    -0.461241    6.821593    11.033300    5.417154    44.791500    -7.741780    -0.505534    7.775386    -99.140869    -4.003986    -23.577057    31.254395    -2.478601    -0.099027    -8.318461    33.071949    5.862854    -9.540141    -5.430405    21.990273    7.601652    1.192682    1.684405    3.240903    22.269859    1.892443    -1.182603    -12.542163    -8.568676    
49.989124    83.624863    -73.096848    -6.529727    11.632776    -110.209496    -16.967783    2.354482    2.555656    2.469507    -2.815159    21.004868    6.129708    -10.585679    21.510096    2.024193    -0.183981    -8.302784    -2.192419    1.857006    -43.425732    17.695206    -0.661783    -4.024762    90.024200    11.941229    138.567993    -7.870360    -0.438135    5.998729    7.061240    5.568293    45.861996    -9.025769    -0.636974    7.842639    -97.636337    1.301321    -28.874046    30.806437    -2.268359    -0.053828    -8.920692    33.370026    7.493590    -9.333472    -5.561738    21.754881    7.559367    1.409389    1.835441    2.781363    21.623192    2.628458    -0.671331    -12.330183    -8.661116    
49.725872    83.806763    -72.769073    -6.426770    11.677955    -110.902718    -16.306417    1.957122    1.916670    1.142166    -2.230701    21.583969    7.371339    -11.935701    22.330606    2.503592    -0.203077    -7.852437    1.903974    1.705028    -42.883308    18.272047    -0.749913    -4.654050    88.509293    10.758809    144.363388    -8.662564    -0.506579    6.728445    6.527051    2.503311    43.722557    -8.892323    -0.680215    9.215566    -98.509094    -0.011372    -29.689768    30.262579    -1.686731    -0.893655    -9.895617    33.135250    9.772388    -9.516190    -5.849635    21.926651    7.342480    1.911309    1.950806    2.489992    20.762424    3.351916    -0.002223    -12.144608    -8.897798    
49.475563    84.003265    -72.443718    -6.301358    11.777884    -111.646065    -15.593176    1.501209    1.499143    4.219205    -4.206249    21.731630    4.011019    -7.832034    21.851229    3.181391    -0.248249    -7.954348    3.188079    -0.043679    -41.701118    19.508875    -0.959062    -6.059240    89.260201    10.472757    146.644409    -9.591568    -0.561655    6.505506    5.676103    0.923627    43.207016    -10.381570    -0.895014    9.809511    -96.158134    -0.401316    -31.332214    29.806982    -1.185927    -0.623786    -10.474335    33.140728    11.655731    -8.675187    -6.040353    21.528164    7.242043    2.385540    2.145904    2.117865    19.900110    3.619053    0.664179    -11.885677    -8.643203    
49.265663    84.170868    -72.044754    -5.962441    11.740053    -112.278488    -14.897825    1.023108    0.988625    4.624761    -5.094296    21.969753    3.675155    -6.363784    21.968168    3.838138    -0.279274    -7.812525    5.131185    -1.267356    -41.148083    20.963415    -1.166592    -6.402287    89.673309    8.776734    149.742813    -10.222263    -0.559773    5.628286    3.547240    -0.356517    43.624657    -10.754345    -0.880857    8.730750    -96.858681    -2.890662    -35.677990    29.237000    -1.076297    -0.504169    -11.024508    33.012508    13.555895    -8.796652    -6.212556    21.438719    7.124171    2.478367    2.301094    1.672934    19.238049    4.254232    1.157864    -11.723937    -8.792742    
48.994892    84.326950    -71.626045    -5.733951    11.715212    -112.810638    -14.252274    0.595982    0.505610    5.275054    -5.389275    22.212805    2.922784    -5.834600    22.113644    4.697392    -0.352790    -7.848207    5.722129    -3.374100    -40.385033    22.021383    -1.344994    -7.151523    90.818039    8.080943    149.192932    -10.732377    -0.501228    4.373050    0.969482    -0.895165    45.127895    -11.562861    -0.865767    7.375410    -97.065453    -0.338440    -38.176193    28.616159    -0.826596    -0.308125    -11.403144    32.817211    15.316555    -7.317493    -6.537048    21.301678    6.832590    2.858754    2.571089    1.499197    18.295996    4.633205    1.626689    -11.452608    -8.915094    
